<svg width="7" height="7" viewBox="0 0 7 7" fill="none" xmlns="http://www.w3.org/2000/svg">
<path d="M0.646447 5.12106L0.292893 5.47461L1 6.18172L1.35355 5.82816L0.646447 5.12106ZM6.44975 0.524862C6.44975 0.248719 6.22589 0.0248619 5.94975 0.0248621L1.44975 0.0248621C1.17361 0.024862 0.949747 0.24872 0.949747 0.524862C0.949747 0.801004 1.17361 1.02486 1.44975 1.02486L5.44975 1.02486L5.44975 5.02486C5.44975 5.301 5.6736 5.52486 5.94975 5.52486C6.22589 5.52486 6.44975 5.301 6.44975 5.02486L6.44975 0.524862ZM1.35355 5.82816L6.3033 0.878415L5.59619 0.171309L0.646447 5.12106L1.35355 5.82816Z" fill="#C49E68"/>
</svg>
