<svg width="13" height="11" viewBox="0 0 13 11" fill="none" xmlns="http://www.w3.org/2000/svg">
<path d="M11.56 7.84C11.56 8.50666 11.3333 9.08 10.88 9.56C10.4267 10.0133 9.86667 10.24 9.2 10.24C8.32 10.24 7.66667 9.96 7.24 9.4C6.84 8.81333 6.64 8.14667 6.64 7.4C6.64 6.81333 6.74667 6.2 6.96 5.56C7.17333 4.89333 7.48 4.25333 7.88 3.64C8.28 3 8.76 2.41333 9.32 1.88C9.88 1.32 10.5067 0.853331 11.2 0.479998L12.12 1.68C11.1867 2.4 10.52 3.05333 10.12 3.64C9.74667 4.2 9.56 4.81333 9.56 5.48C10.1467 5.56 10.6267 5.82667 11 6.28C11.3733 6.70667 11.56 7.22667 11.56 7.84ZM5.16 7.84C5.16 8.50666 4.93333 9.08 4.48 9.56C4.02667 10.0133 3.46667 10.24 2.8 10.24C1.92 10.24 1.26667 9.96 0.84 9.4C0.44 8.81333 0.24 8.14667 0.24 7.4C0.24 6.81333 0.346667 6.2 0.56 5.56C0.773333 4.89333 1.08 4.25333 1.48 3.64C1.88 3 2.36 2.41333 2.92 1.88C3.48 1.32 4.10667 0.853331 4.8 0.479998L5.72 1.68C4.78667 2.4 4.12 3.05333 3.72 3.64C3.34667 4.2 3.16 4.81333 3.16 5.48C3.74667 5.56 4.22667 5.82667 4.6 6.28C4.97333 6.70667 5.16 7.22667 5.16 7.84Z" fill="#323232"/>
</svg>
