<svg width="19" height="19" viewBox="0 0 19 19" fill="none" xmlns="http://www.w3.org/2000/svg">
<g clip-path="url(#clip0_0_78)">
<path d="M9.50086 0.378906C4.46396 0.378906 0.380859 4.46201 0.380859 9.49891C0.380859 14.5358 4.46396 18.6189 9.50086 18.6189C14.5378 18.6189 18.6209 14.5358 18.6209 9.49891C18.6209 4.46201 14.5378 0.378906 9.50086 0.378906ZM13.0083 10.6684C13.0083 10.6684 13.8148 11.4645 14.0134 11.834C14.0191 11.8416 14.0219 11.8492 14.0238 11.853C14.1046 11.9889 14.1236 12.0943 14.0837 12.1732C14.0172 12.3043 13.7892 12.3689 13.7113 12.3746H12.2863C12.1875 12.3746 11.9804 12.3489 11.7296 12.176C11.5367 12.0411 11.3467 11.8198 11.1615 11.6041C10.885 11.283 10.6456 11.0056 10.4043 11.0056C10.3737 11.0056 10.3432 11.0104 10.3141 11.0199C10.1317 11.0788 9.89796 11.3391 9.89796 12.0326C9.89796 12.2492 9.72696 12.3736 9.60631 12.3736H8.95366C8.73136 12.3736 7.57331 12.2957 6.54731 11.2137C5.29141 9.88841 4.16091 7.23031 4.15141 7.20561C4.08016 7.03366 4.22741 6.94151 4.38796 6.94151H5.82721C6.01911 6.94151 6.08181 7.05836 6.12551 7.16191C6.17681 7.28256 6.36491 7.76231 6.67366 8.30191C7.17431 9.18161 7.48116 9.53881 7.72721 9.53881C7.77335 9.53826 7.81866 9.52653 7.85926 9.50461C8.18036 9.32601 8.12051 8.18126 8.10626 7.94376C8.10626 7.89911 8.10531 7.43171 7.94096 7.20751C7.82316 7.04506 7.62271 6.98331 7.50111 6.96051C7.55033 6.89259 7.61517 6.83752 7.69016 6.79996C7.91056 6.68976 8.30766 6.67361 8.70191 6.67361H8.92136C9.34886 6.67931 9.45906 6.70686 9.61391 6.74581C9.92741 6.82086 9.93406 7.02321 9.90651 7.71576C9.89796 7.91241 9.88941 8.13471 9.88941 8.39691C9.88941 8.45391 9.88656 8.51471 9.88656 8.57931C9.87706 8.93176 9.86566 9.33171 10.1146 9.49606C10.147 9.51641 10.1845 9.52727 10.2229 9.52741C10.3093 9.52741 10.5696 9.52741 11.2745 8.31806C11.4919 7.9288 11.6808 7.52431 11.8398 7.10776C11.854 7.08306 11.8958 7.00706 11.9452 6.97761C11.9817 6.95902 12.0221 6.94957 12.063 6.95006H13.755C13.9393 6.95006 14.0656 6.97761 14.0894 7.04886C14.1312 7.16191 14.0818 7.50676 13.3094 8.55271L12.9646 9.00776C12.2644 9.92546 12.2644 9.97201 13.0083 10.6684Z" fill="white"/>
</g>
<defs>
<clipPath id="clip0_0_78">
<rect width="19" height="19" fill="white"/>
</clipPath>
</defs>
</svg>
