<svg width="10" height="13" viewBox="0 0 10 13" fill="none" xmlns="http://www.w3.org/2000/svg">
<path d="M0.19 13V0.76H5.137C5.256 0.76 5.40333 0.765666 5.579 0.776999C5.75467 0.782666 5.92183 0.799666 6.0805 0.828C6.7605 0.935666 7.32717 1.168 7.7805 1.525C8.2395 1.882 8.58233 2.3325 8.809 2.8765C9.03567 3.4205 9.149 4.02117 9.149 4.6785C9.149 5.3415 9.03567 5.945 8.809 6.489C8.58233 7.033 8.2395 7.4835 7.7805 7.8405C7.32717 8.1975 6.7605 8.42983 6.0805 8.5375C5.92183 8.56017 5.75183 8.57717 5.5705 8.5885C5.39483 8.59983 5.25033 8.6055 5.137 8.6055H1.9665V13H0.19ZM1.9665 6.9225H5.069C5.18233 6.9225 5.307 6.91683 5.443 6.9055C5.58467 6.89417 5.71783 6.87433 5.8425 6.846C6.20517 6.761 6.497 6.60517 6.718 6.3785C6.939 6.14617 7.09767 5.87983 7.194 5.5795C7.29033 5.27917 7.3385 4.97883 7.3385 4.6785C7.3385 4.37817 7.29033 4.08067 7.194 3.786C7.09767 3.48567 6.939 3.22217 6.718 2.9955C6.497 2.76317 6.20517 2.6045 5.8425 2.5195C5.71783 2.4855 5.58467 2.46283 5.443 2.4515C5.307 2.44017 5.18233 2.4345 5.069 2.4345H1.9665V6.9225Z" fill="white"/>
</svg>
