<svg width="16" height="16" viewBox="0 0 16 16" fill="none" xmlns="http://www.w3.org/2000/svg">
<g clip-path="url(#clip0_0_149)">
<path d="M11.069 7.9L9.415 3.72667L8.02033 6.16667L6.62567 3.72667L4.97167 7.90133H4.49367V8.52867H6.98433V7.90133H6.61567L6.97433 6.86467L8.02033 8.578L9.06633 6.86467L9.425 7.90133H9.05633V8.52867H11.557V7.90133L11.069 7.9ZM14.6257 6.62533C14.6261 5.75516 14.455 4.89343 14.1222 4.08941C13.7894 3.28539 13.3014 2.55485 12.6861 1.93954C12.0708 1.32423 11.3403 0.836231 10.5363 0.503432C9.73224 0.170633 8.87051 -0.000437293 8.00033 8.39454e-07C4.34433 8.39454e-07 1.375 2.96867 1.375 6.62533C1.375 8.45867 2.12233 10.112 3.31767 11.3073C3.39252 11.3828 3.48814 11.4344 3.59236 11.4554C3.69659 11.4764 3.80471 11.466 3.90298 11.4254C4.00125 11.3848 4.08522 11.3159 4.14423 11.2274C4.20323 11.139 4.2346 11.035 4.23433 10.9287C4.23456 10.7834 4.17728 10.6439 4.075 10.5407C3.03952 9.50099 2.45923 8.0927 2.46167 6.62533C2.46167 3.56667 4.94167 1.076 8.00033 1.076C11.059 1.076 13.5497 3.56667 13.5497 6.62533C13.5513 7.35441 13.4086 8.07659 13.1299 8.75029C12.8512 9.42398 12.4419 10.0359 11.9257 10.5507L7.243 15.2327L8.00033 16L12.693 11.3073C13.3079 10.6928 13.7951 9.96283 14.1268 9.15931C14.4585 8.35579 14.628 7.49462 14.6257 6.62533Z" fill="white"/>
</g>
<defs>
<clipPath id="clip0_0_149">
<rect width="16" height="16" fill="white"/>
</clipPath>
</defs>
</svg>
