<svg width="14" height="14" viewBox="0 0 14 14" fill="none" xmlns="http://www.w3.org/2000/svg">
<g clip-path="url(#clip0_0_104)">
<path d="M9.68538 6.9125L8.23812 3.26083L7.01779 5.39583L5.79746 3.26083L4.35021 6.91367H3.93196V7.46258H6.11129V6.91367H5.78871L6.10254 6.00658L7.01779 7.50575L7.93304 6.00658L8.24688 6.91367H7.92429V7.46258H10.1124V6.91367L9.68538 6.9125ZM12.7975 5.79717C12.7978 5.03576 12.6482 4.28175 12.357 3.57823C12.0658 2.87472 11.6388 2.23549 11.1004 1.6971C10.562 1.1587 9.92274 0.731702 9.21922 0.440503C8.51571 0.149304 7.76169 -0.000382631 7.00029 7.34522e-07C3.80129 7.34522e-07 1.20312 2.59758 1.20312 5.79717C1.20312 7.40133 1.85704 8.848 2.90296 9.89392C2.96845 9.95999 3.05212 10.0051 3.14332 10.0235C3.23451 10.0419 3.32912 10.0327 3.41511 9.99721C3.50109 9.96169 3.57457 9.90141 3.6262 9.82401C3.67783 9.74662 3.70527 9.65562 3.70504 9.56258C3.70524 9.43544 3.65512 9.31339 3.56563 9.22308C2.65958 8.31336 2.15182 7.08111 2.15396 5.79717C2.15396 3.12083 4.32396 0.941501 7.00029 0.941501C9.67663 0.941501 11.856 3.12083 11.856 5.79717C11.8574 6.4351 11.7326 7.06702 11.4887 7.6565C11.2448 8.24598 10.8867 8.78138 10.435 9.23183L6.33763 13.3286L7.00029 14L11.1064 9.89392C11.6444 9.35623 12.0707 8.71747 12.361 8.01439C12.6512 7.31131 12.7995 6.55779 12.7975 5.79717Z" fill="#F74141"/>
</g>
<defs>
<clipPath id="clip0_0_104">
<rect width="14" height="14" fill="white"/>
</clipPath>
</defs>
</svg>
