<svg width="20" height="23" viewBox="0 0 20 23" fill="none" xmlns="http://www.w3.org/2000/svg">
<g clip-path="url(#clip0_0_31)">
<path d="M1.20117 4.97461L3.93254 9.8373V12.8034L1.20437 17.6565L1.20117 4.97461Z" fill="#5B57A2"/>
<path d="M11.6885 8.06729L14.2479 6.50487L19.4858 6.5L11.6885 11.2577V8.06729Z" fill="#D90751"/>
<path d="M11.6754 4.94518L11.6899 11.3832L8.95215 9.70771V0.0839844L11.6754 4.94518Z" fill="#FAB718"/>
<path d="M19.4872 6.49974L14.2491 6.50461L11.6754 4.94518L8.95215 0.0839844L19.4872 6.49974Z" fill="#ED6F26"/>
<path d="M11.6899 17.6832V14.5597L8.95215 12.916L8.95365 22.5493L11.6899 17.6832Z" fill="#63B22F"/>
<path d="M14.2415 16.1353L3.93235 9.8373L1.20117 4.97461L19.4748 16.1289L14.2415 16.1353Z" fill="#1487C9"/>
<path d="M8.95215 22.5495L11.688 17.6835L14.241 16.1353L19.4743 16.1289L8.95215 22.5495Z" fill="#017F36"/>
<path d="M1.20312 17.6565L8.97189 12.9164L6.36006 11.3203L3.9313 12.8034L1.20312 17.6565Z" fill="#984995"/>
</g>
<defs>
<clipPath id="clip0_0_31">
<rect width="18.3803" height="22.4648" fill="white" transform="translate(0.661133 0.0839844)"/>
</clipPath>
</defs>
</svg>
