<svg width="22" height="22" viewBox="0 0 22 22" fill="none" xmlns="http://www.w3.org/2000/svg">
<path d="M10.9057 2.47656C6.25498 2.47656 2.48047 6.25107 2.48047 10.9018C2.48047 15.5525 6.25498 19.3271 10.9057 19.3271C15.5564 19.3271 19.331 15.5525 19.331 10.9018C19.331 6.25107 15.5564 2.47656 10.9057 2.47656ZM14.815 8.20573C14.6886 9.53692 14.141 12.7722 13.863 14.2635C13.745 14.8954 13.5091 15.106 13.2901 15.1313C12.8014 15.1734 12.4307 14.8111 11.9589 14.4994C11.2174 14.0107 10.7962 13.7074 10.08 13.2356C9.24594 12.688 9.78516 12.3847 10.2654 11.896C10.3918 11.7696 12.5486 9.80653 12.5908 9.6296C12.5966 9.6028 12.5958 9.57498 12.5885 9.54855C12.5812 9.52212 12.5675 9.49788 12.5486 9.47794C12.4981 9.43582 12.4307 9.45267 12.3717 9.46109C12.2959 9.47794 11.1163 10.2615 8.81625 11.8117C8.47924 12.0392 8.17593 12.1572 7.90633 12.1487C7.60302 12.1403 7.0301 11.9802 6.60041 11.837C6.06962 11.6685 5.65679 11.5758 5.69049 11.2809C5.70734 11.1293 5.91797 10.9776 6.31396 10.8176C8.77413 9.74755 10.4086 9.03983 11.2259 8.70282C13.5681 7.72549 14.0483 7.55699 14.3685 7.55699C14.4359 7.55699 14.596 7.57384 14.6971 7.65809C14.7813 7.72549 14.8066 7.81817 14.815 7.88557C14.8066 7.93612 14.8235 8.08778 14.815 8.20573Z" fill="white"/>
</svg>
