<svg width="11" height="11" viewBox="0 0 11 11" fill="none" xmlns="http://www.w3.org/2000/svg">
<path fill-rule="evenodd" clip-rule="evenodd" d="M5.5 0C2.46243 0 0 2.46243 0 5.5C0 6.53928 0.288778 7.51267 0.790658 8.34257L0.300195 10.0101C0.176126 10.432 0.568062 10.8239 0.989863 10.6998L2.65744 10.2093C3.48732 10.7113 4.46072 11 5.5 11C8.53754 11 11 8.53754 11 5.5C11 2.46243 8.53754 0 5.5 0ZM4.25602 6.74449C5.36838 7.85686 6.4306 8.00349 6.80565 8.0173C7.37611 8.03831 7.93155 7.60265 8.14808 7.09731C8.20116 6.97356 8.18791 6.82468 8.09902 6.71077C7.79801 6.32527 7.39052 6.04907 6.99237 5.77412C6.82033 5.6551 6.58378 5.69195 6.45706 5.86053L6.12667 6.36383C6.08998 6.41965 6.01711 6.43885 5.95914 6.40568C5.73557 6.27786 5.40958 6.0599 5.17506 5.82538C4.94081 5.59114 4.7361 5.27989 4.62121 5.07072C4.59101 5.01572 4.60774 4.9478 4.65806 4.9104L5.16599 4.53321C5.31746 4.40209 5.34407 4.17938 5.23259 4.01625C4.98575 3.65513 4.69821 3.19616 4.28202 2.89259C4.16836 2.80968 4.02457 2.80037 3.90585 2.85124C3.39994 3.06807 2.96216 3.62334 2.98319 4.19482C2.99699 4.5699 3.14365 5.63211 4.25602 6.74449Z" fill="#2FCB67"/>
</svg>
