<svg width="120" height="99" viewBox="0 0 120 99" fill="none" xmlns="http://www.w3.org/2000/svg">
<path opacity="0.05" d="M113.6 74.4C113.6 81.0666 111.333 86.8 106.8 91.6C102.267 96.1333 96.6667 98.4 90 98.4C81.2 98.4 74.6667 95.6 70.4 90C66.4 84.1333 64.4 77.4667 64.4 70C64.4 64.1333 65.4667 58 67.6 51.6C69.7333 44.9333 72.8 38.5333 76.8 32.4C80.8 26 85.6 20.1333 91.2 14.8C96.8 9.19998 103.067 4.53331 110 0.799981L119.2 12.8C109.867 20 103.2 26.5333 99.2 32.4C95.4667 38 93.6 44.1333 93.6 50.8C99.4667 51.6 104.267 54.2667 108 58.8C111.733 63.0667 113.6 68.2667 113.6 74.4ZM49.6 74.4C49.6 81.0666 47.3333 86.8 42.8 91.6C38.2667 96.1333 32.6667 98.4 26 98.4C17.2 98.4 10.6667 95.6 6.4 90C2.4 84.1333 0.400001 77.4667 0.400001 70C0.400001 64.1333 1.46667 58 3.6 51.6C5.73333 44.9333 8.8 38.5333 12.8 32.4C16.8 26 21.6 20.1333 27.2 14.8C32.8 9.19998 39.0667 4.53331 46 0.799981L55.2 12.8C45.8667 20 39.2 26.5333 35.2 32.4C31.4667 38 29.6 44.1333 29.6 50.8C35.4667 51.6 40.2667 54.2667 44 58.8C47.7333 63.0667 49.6 68.2667 49.6 74.4Z" fill="#323232"/>
</svg>
