<svg width="19" height="19" viewBox="0 0 19 19" fill="none" xmlns="http://www.w3.org/2000/svg">
<path d="M8.3114 1.65873C8.6864 0.507476 10.3152 0.507476 10.6889 1.65873L12.0264 5.77373C12.1081 6.02434 12.267 6.2427 12.4802 6.39761C12.6935 6.55251 12.9503 6.63603 13.2139 6.63623H17.5414C18.7527 6.63623 19.2551 8.18623 18.2764 8.89873L14.7764 11.4412C14.5627 11.5963 14.4036 11.815 14.3218 12.066C14.2401 12.3171 14.2399 12.5876 14.3214 12.8387L15.6589 16.9537C16.0339 18.105 14.7152 19.0637 13.7339 18.3512L10.2339 15.8087C10.0204 15.6537 9.76335 15.5703 9.49953 15.5703C9.2357 15.5703 8.97864 15.6537 8.76515 15.8087L5.26515 18.3512C4.28515 19.0637 2.96765 18.105 3.3414 16.9537L4.6789 12.8387C4.76037 12.5876 4.76022 12.3171 4.67848 12.066C4.59675 11.815 4.43761 11.5963 4.2239 11.4412L0.725151 8.89998C-0.253599 8.18748 0.250151 6.63748 1.46015 6.63748H5.7864C6.05021 6.63755 6.30728 6.55415 6.52081 6.39922C6.73433 6.2443 6.89337 6.02579 6.97515 5.77498L8.31265 1.65998L8.3114 1.65873Z" fill="#C49E68"/>
</svg>
