<svg width="51" height="51" viewBox="0 0 51 51" fill="none" xmlns="http://www.w3.org/2000/svg">
<path d="M22.7367 1.61307C24.1291 -0.207504 26.8709 -0.207503 28.2633 1.61307C29.3054 2.97564 31.1851 3.3752 32.6913 2.55428C34.7038 1.45743 37.2086 2.57262 37.7401 4.80212C38.1378 6.47075 39.6926 7.60033 41.4025 7.46302C43.6871 7.27955 45.5217 9.31709 45.1004 11.57C44.7851 13.2562 45.746 14.9205 47.3639 15.4905C49.5257 16.2521 50.3729 18.8597 49.0717 20.7466C48.0979 22.1587 48.2987 24.0699 49.5449 25.2487C51.21 26.8238 50.9234 29.5506 48.9672 30.745C47.5032 31.6389 46.9093 33.4667 47.5683 35.0504C48.4488 37.1665 47.0779 39.541 44.8051 39.8365C43.104 40.0577 41.8181 41.4859 41.7759 43.2007C41.7196 45.492 39.5014 47.1036 37.3049 46.4491C35.6609 45.9593 33.9053 46.741 33.1693 48.2904C32.1858 50.3607 29.504 50.9308 27.7635 49.4395C26.4609 48.3233 24.5391 48.3233 23.2365 49.4395C21.496 50.9308 18.8142 50.3607 17.8307 48.2904C17.0947 46.741 15.3391 45.9593 13.6951 46.4491C11.4986 47.1036 9.28043 45.492 9.22409 43.2007C9.18192 41.4859 7.89601 40.0577 6.19495 39.8365C3.9221 39.541 2.5512 37.1665 3.43168 35.0504C4.09066 33.4667 3.4968 31.6389 2.03277 30.745C0.0766218 29.5506 -0.209973 26.8238 1.45509 25.2487C2.70126 24.0699 2.90214 22.1587 1.92828 20.7466C0.627081 18.8597 1.47434 16.2521 3.63608 15.4905C5.25398 14.9205 6.21486 13.2562 5.89957 11.57C5.47829 9.31709 7.31291 7.27955 9.59754 7.46302C11.3074 7.60033 12.8622 6.47075 13.2599 4.80212C13.7914 2.57262 16.2962 1.45743 18.3087 2.55428C19.8149 3.3752 21.6947 2.97564 22.7367 1.61307Z" fill="#C49E68"/>
</svg>
