<svg width="15" height="15" viewBox="0 0 15 15" fill="none" xmlns="http://www.w3.org/2000/svg">
<path d="M1.5 7.875C1.5 7.72726 1.5291 7.58097 1.58564 7.44448C1.64217 7.30799 1.72504 7.18397 1.8295 7.0795C1.93397 6.97504 2.05799 6.89217 2.19448 6.83564C2.33097 6.7791 2.47726 6.75 2.625 6.75C2.77274 6.75 2.91903 6.7791 3.05552 6.83564C3.19201 6.89217 3.31603 6.97504 3.4205 7.0795C3.52496 7.18397 3.60783 7.30799 3.66436 7.44448C3.7209 7.58097 3.75 7.72726 3.75 7.875V12.375C3.75 12.6734 3.63147 12.9595 3.4205 13.1705C3.20952 13.3815 2.92337 13.5 2.625 13.5C2.32663 13.5 2.04048 13.3815 1.8295 13.1705C1.61853 12.9595 1.5 12.6734 1.5 12.375V7.875ZM4.5 7.74975V11.8222C4.49987 12.101 4.57741 12.3743 4.72393 12.6114C4.87045 12.8485 5.08015 13.0401 5.3295 13.1647L5.367 13.1835C5.78316 13.3915 6.242 13.4999 6.70725 13.5H10.7693C11.1161 13.5001 11.4524 13.38 11.7207 13.1601C11.989 12.9403 12.1728 12.6342 12.2408 12.294L13.1408 7.794C13.1842 7.5764 13.1789 7.35187 13.1252 7.13658C13.0714 6.92129 12.9705 6.72061 12.8299 6.54901C12.6892 6.3774 12.5122 6.23915 12.3116 6.14421C12.111 6.04928 11.8919 6.00002 11.67 6H9V3C9 2.60218 8.84197 2.22064 8.56066 1.93934C8.27936 1.65804 7.89783 1.5 7.5 1.5C7.30109 1.5 7.11032 1.57902 6.96967 1.71967C6.82902 1.86032 6.75 2.05109 6.75 2.25V2.75025C6.75 3.39936 6.53947 4.03096 6.15 4.55025L5.1 5.94975C4.71053 6.46904 4.5 7.10064 4.5 7.74975Z" fill="white"/>
</svg>
