<svg width="14" height="14" viewBox="0 0 14 14" fill="none" xmlns="http://www.w3.org/2000/svg">
<path d="M6.29961 1.3999C6.11396 1.3999 5.93591 1.47365 5.80463 1.60493C5.67336 1.7362 5.59961 1.91425 5.59961 2.0999C5.59961 2.28555 5.67336 2.4636 5.80463 2.59488C5.93591 2.72615 6.11396 2.7999 6.29961 2.7999H7.69961C7.88526 2.7999 8.06331 2.72615 8.19458 2.59488C8.32586 2.4636 8.39961 2.28555 8.39961 2.0999C8.39961 1.91425 8.32586 1.7362 8.19458 1.60493C8.06331 1.47365 7.88526 1.3999 7.69961 1.3999H6.29961Z" fill="white"/>
<path fill-rule="evenodd" clip-rule="evenodd" d="M2.79999 3.5001C2.79999 3.12879 2.94749 2.7727 3.21004 2.51015C3.47259 2.2476 3.82868 2.1001 4.19999 2.1001C4.19999 2.65705 4.42124 3.1912 4.81506 3.58502C5.20889 3.97885 5.74303 4.2001 6.29999 4.2001H7.69999C8.25694 4.2001 8.79109 3.97885 9.18491 3.58502C9.57874 3.1912 9.79999 2.65705 9.79999 2.1001C10.1713 2.1001 10.5274 2.2476 10.7899 2.51015C11.0525 2.7727 11.2 3.12879 11.2 3.5001V11.2001C11.2 11.5714 11.0525 11.9275 10.7899 12.19C10.5274 12.4526 10.1713 12.6001 9.79999 12.6001H4.19999C3.82868 12.6001 3.47259 12.4526 3.21004 12.19C2.94749 11.9275 2.79999 11.5714 2.79999 11.2001V3.5001ZM4.89999 6.3001C4.71434 6.3001 4.53629 6.37385 4.40501 6.50512C4.27374 6.6364 4.19999 6.81445 4.19999 7.0001C4.19999 7.18575 4.27374 7.3638 4.40501 7.49507C4.53629 7.62635 4.71434 7.7001 4.89999 7.7001H4.90699C5.09264 7.7001 5.27069 7.62635 5.40196 7.49507C5.53324 7.3638 5.60699 7.18575 5.60699 7.0001C5.60699 6.81445 5.53324 6.6364 5.40196 6.50512C5.27069 6.37385 5.09264 6.3001 4.90699 6.3001H4.89999ZM6.99999 6.3001C6.81434 6.3001 6.63629 6.37385 6.50501 6.50512C6.37374 6.6364 6.29999 6.81445 6.29999 7.0001C6.29999 7.18575 6.37374 7.3638 6.50501 7.49507C6.63629 7.62635 6.81434 7.7001 6.99999 7.7001H9.09999C9.28564 7.7001 9.46369 7.62635 9.59496 7.49507C9.72624 7.3638 9.79999 7.18575 9.79999 7.0001C9.79999 6.81445 9.72624 6.6364 9.59496 6.50512C9.46369 6.37385 9.28564 6.3001 9.09999 6.3001H6.99999ZM4.89999 9.1001C4.71434 9.1001 4.53629 9.17385 4.40501 9.30512C4.27374 9.4364 4.19999 9.61445 4.19999 9.8001C4.19999 9.98575 4.27374 10.1638 4.40501 10.2951C4.53629 10.4263 4.71434 10.5001 4.89999 10.5001H4.90699C5.09264 10.5001 5.27069 10.4263 5.40196 10.2951C5.53324 10.1638 5.60699 9.98575 5.60699 9.8001C5.60699 9.61445 5.53324 9.4364 5.40196 9.30512C5.27069 9.17385 5.09264 9.1001 4.90699 9.1001H4.89999ZM6.99999 9.1001C6.81434 9.1001 6.63629 9.17385 6.50501 9.30512C6.37374 9.4364 6.29999 9.61445 6.29999 9.8001C6.29999 9.98575 6.37374 10.1638 6.50501 10.2951C6.63629 10.4263 6.81434 10.5001 6.99999 10.5001H9.09999C9.28564 10.5001 9.46369 10.4263 9.59496 10.2951C9.72624 10.1638 9.79999 9.98575 9.79999 9.8001C9.79999 9.61445 9.72624 9.4364 9.59496 9.30512C9.46369 9.17385 9.28564 9.1001 9.09999 9.1001H6.99999Z" fill="white"/>
</svg>
