<svg width="126" height="51" viewBox="0 0 126 51" fill="none" xmlns="http://www.w3.org/2000/svg">
<path d="M45.8037 46.8673H79.3218V46.1504H45.8037V46.8673Z" fill="#152B36"/>
<path d="M83.0345 43.6465H82.3299V49.9965H87.5349V49.289H83.0345V43.6465Z" fill="#152B36"/>
<path d="M91.3938 49.4795C89.6645 49.4795 88.5398 48.5268 88.5398 46.8213C88.5398 45.1162 89.6645 44.1641 91.3938 44.1641C93.1232 44.1641 94.2487 45.1162 94.2487 46.8213C94.2487 48.5268 93.1232 49.4795 91.3938 49.4795ZM91.3938 43.4562C89.161 43.4562 87.8174 44.7531 87.8174 46.8213C87.8174 48.8898 89.161 50.1871 91.3938 50.1871C93.6266 50.1871 94.9703 48.8898 94.9703 46.8213C94.9703 44.7531 93.6266 43.4562 91.3938 43.4562Z" fill="#152B36"/>
<path d="M101.824 46.9578C101.824 48.5181 100.96 49.4795 99.4315 49.4795C97.8954 49.4795 97.0312 48.5181 97.0312 46.9578V43.6465H96.3262V47.0031C96.3262 48.8533 97.4086 50.1871 99.4315 50.1871C101.455 50.1871 102.529 48.8533 102.529 47.0031V43.6465H101.824V46.9578Z" fill="#152B36"/>
<path d="M109.879 48.8805L105.085 43.6465H104.322V49.9965H105.01V44.6173L109.946 49.9965H110.568V43.6465H109.879V48.8805Z" fill="#152B36"/>
<path d="M115.575 47.4017H118.245V48.2276C117.808 49.1076 116.851 49.4795 115.684 49.4795C113.888 49.4795 112.763 48.5814 112.763 46.8213C112.763 45.0621 113.88 44.1641 115.633 44.1641C116.7 44.1641 117.48 44.5267 118.01 45.2434L118.622 44.7806C118.035 44.0369 117.07 43.4562 115.633 43.4562C113.384 43.4562 112.04 44.7531 112.04 46.8213C112.04 48.8898 113.384 50.1871 115.659 50.1871C117.288 50.1871 118.463 49.4434 118.95 48.4541V46.6946H115.575V47.4017Z" fill="#152B36"/>
<path d="M125.993 43.6499H120.401V49.998H125.993V49.2909H121.106V47.1214H125.249V46.4143H121.106V44.357H125.993H126V43.6499H125.993Z" fill="#152B36"/>
<path d="M2.88446 49.2812H0.725179V44.3517H2.88446C4.6027 44.3517 5.81991 45.1942 5.81991 46.8169C5.81991 48.4386 4.6027 49.2812 2.88446 49.2812ZM2.93588 43.6446H0V49.9882H2.93588C5.14613 49.9882 6.56266 48.7646 6.56266 46.8169C6.56266 44.8681 5.14613 43.6446 2.93588 43.6446Z" fill="#152B36"/>
<path d="M8.84687 47.1156H13.1131V46.4087H8.84687V44.3517H13.8816V43.6446H8.12215V49.9882H13.9678V49.2812H8.84687V47.1156Z" fill="#152B36"/>
<path d="M21.1824 48.8733L16.2514 43.6446H15.4658V49.9882H16.1738V44.6144L21.2514 49.9882H21.8905V43.6446H21.1824V48.8733Z" fill="#152B36"/>
<path d="M29.5198 43.6446H23.0862V44.3342H25.9359V49.9882H26.6614V44.3342H29.5198V43.6446Z" fill="#152B36"/>
<path d="M30.8962 47.596L32.5802 44.343L34.2642 47.596H30.8962ZM32.1829 43.6446L28.8583 49.9882H29.6615L30.5417 48.2841H34.6177L35.4989 49.9882H36.3184L32.9942 43.6446H32.1829Z" fill="#152B36"/>
<path d="M38.1876 43.6446H37.4629V49.9882H42.8164V49.2812H38.1876V43.6446Z" fill="#152B36"/>
<path d="M39.3187 31.3406C39.3187 30.1385 38.3779 29.183 37.0561 29.183C35.7631 29.183 34.8242 30.1385 34.8242 31.3406C34.8242 32.5427 35.7631 33.4359 37.0561 33.4359C38.3779 33.4359 39.3187 32.5427 39.3187 31.3406Z" fill="#152B36"/>
<path d="M46.1221 16.5431L55.903 28.9968H56.1095L65.8904 16.5431V33.0967H69.4175V11.5191H65.6266L56.0789 23.8807L46.5334 11.5191H42.7141V33.0967H46.1221V16.5431Z" fill="#152B36"/>
<path d="M86.3967 33.7452C93.6814 33.7452 97.5897 29.3056 97.5897 22.925V11.5189H94.0646V22.6784C94.0646 27.5171 91.3309 30.4454 86.3967 30.4454C81.4913 30.4454 78.7583 27.5171 78.7583 22.6784V11.5189H75.2334V22.925C75.2334 29.3056 79.1407 33.7452 86.3967 33.7452Z" fill="#152B36"/>
<path d="M106.814 16.0811L122.883 33.0967H125.997V11.5191H122.561V27.8886L107.166 11.5191H103.406V33.0967H106.814V16.0811Z" fill="#152B36"/>
<path d="M18.436 14.7615C17.2536 16.6741 15.1042 17.8953 12.204 18.2734V18.2008L12.1967 14.7615H18.436ZM8.70116 33.0992H16.1604V29.9411H12.2265L12.2117 21.4953V21.3185C17.2238 20.8848 20.764 18.5224 22.1918 14.7615H22.199C22.2157 14.721 22.2297 14.6743 22.2455 14.6333H22.5413C25.888 14.6333 27.5832 15.9266 27.5832 18.4498C27.5832 20.9812 25.888 22.2672 22.5413 22.2672H18.6147L27.4124 33.0992H31.4509L24.8246 25.0714L25.0176 25.0313C28.8109 24.308 30.9823 21.8973 30.9823 18.4176C30.9823 14.3034 27.9255 11.7081 23.0099 11.6277H22.9504C22.9364 11.6258 22.9242 11.6267 22.9111 11.6258C22.913 11.5936 22.9188 11.5639 22.9206 11.5312C22.9354 11.2822 22.9427 11.0327 22.9427 10.7838C22.9427 4.13027 18.0644 0 10.4267 0H0V13.148H3.5253V3.23025H10.1664C15.5728 3.23025 19.3286 5.79388 19.3286 10.7838C19.3286 11.041 19.3213 11.2822 19.2988 11.5234H8.70116V18.3377H0V21.5758H8.70116V33.0992Z" fill="#152B36"/>
</svg>
